<svg width="1440" height="152" viewBox="0 0 1440 152" fill="none" xmlns="http://www.w3.org/2000/svg">
<g clip-path="url(#clip0_1_4688)">
<path d="M1428.55 101.104V96.7345H1420.73V101.104H1410.61V116.271C1403.51 112.579 1398 109.733 1390.76 105.969V101.484H1386.27V105.969L1381.31 108.265V84.0384H1364.58V80.0366H1359.27V84.0384H1343.65V118.263L1329.57 108.471L1321.44 114.25L1315.8 118.263V97.4031H1302.11V92.755H1292.75V97.4031H1291.56V82.1789H1291.6V54.8394H1277.66V49.045H1258.47V54.8394H1230.23V72.9831C1227.95 71.7058 1219.57 67.6316 1209.4 70.3644V8.04831L1195.64 -0.203125L1195.62 -0.14741H1154.52V73.9247L1140.79 68.2375L1128.4 73.9247V27.121C1128.4 25.756 1127.07 24.9189 1126.04 25.6362L1104.86 34.7512V27.681H1101.83V36.055L1091.34 40.5693V72.4454L1089.18 71.3172L1084.5 68.8657V63.0226H1079.33V68.8657C1077.89 69.7154 1076.5 70.5274 1075.16 71.3172C1068.82 75.0362 1063.36 78.2245 1056.71 82.1301V68.1108H1014.68V99.6763H1007.29V95.0463H999.298V99.6763H987.608V120.451C983.9 117.373 979.814 115.834 975.725 115.834C971.635 115.834 967.7 117.314 964.047 120.281L963.837 120.451L960.008 123.717V101.105H948.557V96.7359H940.732V101.105H930.619V116.272C923.513 112.58 918.003 109.734 910.764 105.971V101.486H906.279V105.971L901.321 108.266V84.0398H884.586V80.038H879.274V84.0398H863.656V118.264L849.573 108.472L841.446 114.251L835.806 118.264V97.4045H822.112V92.7564H812.752V97.4045H811.568V82.1803H811.609V54.8408H797.668V49.0464H778.476V54.8408H750.232V72.9845C747.956 71.7072 739.577 67.633 729.411 70.3658V8.04831L715.641 -0.203125L715.616 -0.14741H674.514V73.9247L660.783 68.2375L648.392 73.9247V27.121C648.392 25.756 647.065 24.9189 646.036 25.6362L624.855 34.7512V27.681H621.824V36.055L611.337 40.5693V72.4454L609.181 71.3172L604.497 68.8657V63.0226H599.33V68.8657C597.885 69.7154 596.5 70.5274 595.154 71.3172C588.814 75.0362 583.358 78.2245 576.706 82.1301V68.1108H534.676V99.6763H527.284V95.0463H519.295V99.6763H507.605V120.451C503.897 117.373 499.811 115.834 495.721 115.834C491.632 115.834 487.697 117.314 484.044 120.281L483.833 120.451L480.005 123.717V101.105H468.554V96.7359H460.729V101.105H450.616V116.272C443.51 112.58 438 109.734 430.761 105.971V101.486H426.276V105.971L421.318 108.266V84.0398H404.583V80.038H399.271V84.0398H383.653V118.264L369.57 108.472L361.443 114.251L355.803 118.264V97.4045H342.109V92.7564H332.749V97.4045H331.565V82.1803H331.605V54.8408H317.664V49.0464H298.473V54.8408H270.229V72.9845C267.953 71.7072 259.574 67.633 249.407 70.3658V8.04831L235.641 -0.203125L235.616 -0.14741H194.513V73.9247L180.783 68.2375L168.392 73.9247V27.121C168.392 25.756 167.065 24.9189 166.035 25.6362L144.854 34.7512V27.681H141.824V36.055L131.337 40.5693V72.4454L129.181 71.3172L124.497 68.8657V63.0226H119.329V68.8657C117.885 69.7154 116.499 70.5274 115.154 71.3172C108.814 75.0362 103.358 78.2245 96.7057 82.1301V68.1108H54.6742V99.6763H47.2825V95.0463H39.2932V99.6763H27.6031V120.451C23.8954 117.373 19.8089 115.834 15.7181 115.834C11.6274 115.834 7.694 117.314 4.0406 120.281L3.83029 120.451L0 123.716V150.62H0.0306423V184H1439.94V150.62H1440V101.103H1428.55V101.104ZM1430.55 105.157H1435.14V110.998H1430.55V105.157ZM1430.55 115.143H1435.14V120.983H1430.55V115.143ZM1430.55 125.128H1435.14V130.969H1430.55V125.128ZM1423.25 105.157H1427.84V110.998H1423.25V105.157ZM1423.25 115.143H1427.84V120.983H1423.25V115.143ZM1423.25 125.128H1427.84V130.969H1423.25V125.128ZM1415.94 105.157H1420.53V110.998H1415.94V105.157ZM1415.94 115.143H1420.53V120.983H1415.94V115.143ZM1415.94 125.128H1420.53V130.969H1415.94V125.128ZM1396.49 123.078H1401.78V128.918H1396.49V123.078ZM1387.9 113.533H1393.19V119.373H1387.9V113.533ZM1371.01 90.1782H1373.75V94.4878H1371.01V90.1782ZM1364.18 90.1782H1366.92V94.4878H1364.18V90.1782ZM1357.36 90.1782H1360.1V94.4878H1357.36V90.1782ZM1350.53 90.1782H1353.27V94.4878H1350.53V90.1782ZM1325.77 119.94C1325.77 118.292 1327.11 116.956 1328.76 116.956H1330.55C1332.19 116.956 1333.53 118.292 1333.53 119.94V126.502H1325.78V119.94H1325.77ZM1274.09 62.8025H1282.44V76.6728H1274.09V62.8025ZM1274.09 84.3476H1282.44V97.5215H1274.09V84.3476ZM1257.67 62.8025H1266.02V76.6728H1257.67V62.8025ZM1257.67 84.3476H1266.02V97.5215H1257.67V84.3476ZM1241.25 62.8025H1249.61V76.6728H1241.25V62.8025ZM1241.25 84.3476H1249.61V97.5215H1241.25V84.3476ZM1215.29 82.3293H1221.13V89.9108H1215.29V82.3293ZM1177.16 10.5694H1184.38V22.4841H1177.16V10.5694ZM1177.16 33.779H1184.38V45.6937H1177.16V33.779ZM1177.16 56.9886H1184.38V68.9033H1177.16V56.9886ZM1162.69 10.568H1169.91V22.4827H1162.69V10.5694V10.568ZM1162.69 33.7776H1169.91V45.6923H1162.69V33.7776ZM1162.69 56.9872H1169.91V68.9019H1162.69V56.9872ZM1137.79 76.9737H1143.64V84.5551H1137.79V76.9737ZM1109.05 39.9634H1123.27V43.9206H1109.05V39.9634ZM1109.05 49.2971H1123.27V53.2543H1109.05V49.2971ZM1109.05 58.6308H1123.27V62.588H1109.05V58.6308ZM1076.75 79.7622H1085.82V92.3441H1076.75V79.7622ZM1039.74 74.5152H1043.9V82.105H1039.74V74.5152ZM1039.74 86.5163H1043.9V94.1061H1039.74V86.5163ZM1039.74 98.5174H1043.9V106.109H1039.74V98.5174ZM1032.96 74.5152H1037.12V82.105H1032.96V74.5152ZM1032.96 86.5163H1037.12V94.1061H1032.96V86.5163ZM1032.96 98.5174H1037.12V106.109H1032.96V98.5174ZM1026.18 74.5152H1030.34V82.105H1026.18V74.5152ZM1026.18 86.5163H1030.34V94.1061H1026.18V86.5163ZM1026.18 98.5174H1030.34V106.109H1026.18V98.5174ZM998.671 111.485C998.671 109.72 1000.1 108.288 1001.87 108.288H1003.78C1005.55 108.288 1006.98 109.719 1006.98 111.485V115.87H998.671V111.485ZM950.549 105.152H955.138V110.992H950.549V105.152ZM950.549 115.137H955.138V120.978H950.549V115.137ZM950.549 125.123H955.138V130.963H950.549V125.123ZM943.244 105.152H947.833V110.992H943.244V105.152ZM943.244 115.137H947.833V120.978H943.244V115.137ZM943.244 125.123H947.833V130.963H943.244V125.123ZM935.938 105.152H940.528V110.992H935.938V105.152ZM935.938 115.137H940.528V120.978H935.938V115.137ZM935.938 125.123H940.528V130.963H935.938V125.123ZM916.49 123.072H921.776V128.913H916.49V123.072ZM907.901 113.527H913.186V119.367H907.901V113.527ZM891.003 90.1726H893.742V94.4822H891.003V90.1726ZM884.178 90.1726H886.918V94.4822H884.178V90.1726ZM877.353 90.1726H880.093V94.4822H877.353V90.1726ZM870.528 90.1726H873.268V94.4822H870.528V90.1726ZM845.771 119.934C845.771 118.287 847.106 116.951 848.754 116.951H850.544C852.192 116.951 853.527 118.287 853.527 119.934V126.496H845.772V119.934H845.771ZM794.083 62.7969H802.437V76.6672H794.083V62.7969ZM794.083 84.342H802.437V97.5159H794.083V84.342ZM777.667 62.7969H786.021V76.6672H777.667V62.7969ZM777.667 84.342H786.021V97.5159H777.667V84.342ZM761.251 62.7969H769.605V76.6672H761.251V62.7969ZM761.251 84.342H769.605V97.5159H761.251V84.342ZM735.283 82.3237H741.13V89.9052H735.283V82.3237ZM697.154 10.5639H704.372V22.4786H697.154V10.5694V10.5639ZM697.154 33.7734H704.372V45.6882H697.154V33.7734ZM697.154 56.983H704.372V68.8977H697.154V56.983ZM682.691 10.5625H689.909V22.4772H682.691V10.5694V10.5625ZM682.691 33.772H689.909V45.6868H682.691V33.772ZM682.691 56.9816H689.909V68.8964H682.691V56.9816ZM657.791 76.9681H663.638V84.5496H657.791V76.9681ZM629.042 39.9578H643.265V43.915H629.042V39.9578ZM629.042 49.2915H643.265V53.2487H629.042V49.2915ZM629.042 58.6252H643.265V62.5824H629.042V58.6252ZM596.745 79.7567H605.818V92.3386H596.745V79.7567ZM559.739 74.5097H563.893V82.0995H559.739V74.5097ZM559.739 86.5107H563.893V94.1005H559.739V86.5107ZM559.739 98.5118H563.893V106.103H559.739V98.5118ZM552.96 74.5097H557.115V82.0995H552.96V74.5097ZM552.96 86.5107H557.115V94.1005H552.96V86.5107ZM552.96 98.5118H557.115V106.103H552.96V98.5118ZM546.181 74.5097H550.336V82.0995H546.181V74.5097ZM546.181 86.5107H550.336V94.1005H546.181V86.5107ZM546.181 98.5118H550.336V106.103H546.181V98.5118ZM518.668 111.48C518.668 109.715 520.099 108.283 521.865 108.283H523.781C525.546 108.283 526.978 109.713 526.978 111.48V115.864H518.668V111.48ZM470.546 105.146H475.135V110.986H470.546V105.146ZM470.546 115.132H475.135V120.972H470.546V115.132ZM470.546 125.117H475.135V130.958H470.546V125.117ZM463.24 105.146H467.83V110.986H463.24V105.146ZM463.24 115.132H467.83V120.972H463.24V115.132ZM463.24 125.117H467.83V130.958H463.24V125.117ZM455.935 105.146H460.524V110.986H455.935V105.146ZM455.935 115.132H460.524V120.972H455.935V115.132ZM455.935 125.117H460.524V130.958H455.935V125.117ZM436.487 123.067H441.773V128.907H436.487V123.067ZM427.897 113.521H433.183V119.362H427.897V113.521ZM411 90.167H413.739V94.4766H411V90.167ZM404.175 90.167H406.914V94.4766H404.175V90.167ZM397.35 90.167H400.09V94.4766H397.35V90.167ZM390.525 90.167H393.265V94.4766H390.525V90.167ZM365.769 119.929C365.769 118.281 367.104 116.945 368.752 116.945H370.542C372.19 116.945 373.525 118.281 373.525 119.929V126.491H365.77V119.929H365.769ZM314.081 62.7914H322.435V76.6617H314.081V62.7914ZM314.081 84.3364H322.435V97.5103H314.081V84.3364ZM297.665 62.7914H306.019V76.6617H297.665V62.7914ZM297.665 84.3364H306.019V97.5103H297.665V84.3364ZM281.249 62.7914H289.603V76.6617H281.249V62.7914ZM281.249 84.3364H289.603V97.5103H281.249V84.3364ZM255.281 82.3182H261.128V89.8996H255.281V82.3182ZM217.159 10.5694H224.377V22.4841H217.159V10.5694ZM217.159 33.779H224.377V45.6937H217.159V33.779ZM217.159 56.9886H224.377V68.9033H217.159V56.9886ZM202.696 10.568H209.914V22.4827H202.696V10.5694V10.568ZM202.696 33.7776H209.914V45.6923H202.696V33.7776ZM202.696 56.9872H209.914V68.9019H202.696V56.9872ZM177.796 76.9737H183.643V84.5551H177.796V76.9737ZM149.047 39.9634H163.271V43.9206H149.047V39.9634ZM149.047 49.2971H163.271V53.2543H149.047V49.2971ZM149.047 58.6308H163.271V62.588H149.047V58.6308ZM116.75 79.7622H125.823V92.3441H116.75V79.7622ZM79.7438 74.5152H83.8986V82.105H79.7438V74.5152ZM79.7438 86.5163H83.8986V94.1061H79.7438V86.5163ZM79.7438 98.5174H83.8986V106.109H79.7438V98.5174ZM72.9649 74.5152H77.1197V82.105H72.9649V74.5152ZM72.9649 86.5163H77.1197V94.1061H72.9649V86.5163ZM72.9649 98.5174H77.1197V106.109H72.9649V98.5174ZM66.186 74.5152H70.3408V82.105H66.186V74.5152ZM66.186 86.5163H70.3408V94.1061H66.186V86.5163ZM66.186 98.5174H70.3408V106.109H66.186V98.5174ZM38.6734 111.485C38.6734 109.72 40.1038 108.288 41.8699 108.288H43.7864C45.5512 108.288 46.983 109.719 46.983 111.485V115.87H38.6734V111.485Z" fill="#82C8FF"/>
</g>
<defs>
<clipPath id="clip0_1_4688">
<rect width="1440" height="152" fill="white"/>
</clipPath>
</defs>
</svg>
