<svg width="130" height="347" viewBox="0 0 130 347" fill="none" xmlns="http://www.w3.org/2000/svg">
<g clip-path="url(#clip0_1_4038)">
<path d="M32.6503 139.932C32.6003 139.952 32.5503 139.962 32.5103 139.982C32.5703 139.962 32.6103 139.952 32.6503 139.932Z" fill="url(#paint0_linear_1_4038)"/>
<path d="M36.31 337.743L34.24 346.643L41.59 344.923L40.68 336.983L36.31 337.743Z" fill="#00D9FF"/>
<path d="M47.4453 285.002L43.9453 275.892L37.6353 281.502L39.0352 285.002H47.4453Z" fill="#FFC700"/>
<path d="M5.41019 66.2817L11.8602 75.1917L4.48019 83.8517L0.450195 75.3017L5.41019 66.2817Z" fill="#00CCFF"/>
<path d="M22.1204 19.897L25.5604 28.797L15.8504 32.557L14.3704 24.527L22.1204 19.897Z" fill="#FDAF01"/>
<path d="M62.4548 204.165L65.8948 213.065L56.1848 216.825L54.7048 208.795L62.4548 204.165Z" fill="#FDAF01"/>
<path d="M86.6602 133.272L93.3502 133.762L94.2902 140.652L88.7502 139.172L86.6602 133.272Z" fill="#EE037F"/>
<path d="M74.1302 284.452L73.5002 277.352L81.1602 276.442L80.5703 282.552L74.1302 284.452Z" fill="#7FC31C"/>
<path d="M36.8849 103.902L36.2549 96.8016L43.9149 95.8916L43.3249 102.002L36.8849 103.902Z" fill="#7FC31C"/>
<path d="M23.8 191.1L16.78 182.65L23.55 173.5L28.15 181.77L23.8 191.1Z" fill="#FD0000"/>
<path d="M18.8752 305.834L22.4652 310.034L17.8752 313.954L15.5352 309.844L18.8752 305.834Z" fill="#00A0C6"/>
<path d="M18.8901 141.432L11.8601 132.972L20.8001 125.112L25.3901 133.372L18.8901 141.432Z" fill="#E830FF"/>
<path d="M111.99 108.302L108.43 99.7716L117.73 95.8916L119.36 103.622L111.99 108.302Z" fill="#00A0C6"/>
<path d="M78.1102 95.8915L73.1902 89.9615L77.9402 83.5615L81.1602 89.3515L78.1102 95.8915Z" fill="#FD0000"/>
<path d="M49.4602 141.432L57.8802 142.742L58.3702 151.562L51.5102 149.112L49.4602 141.432Z" fill="#FDA500"/>
<path d="M124.225 0.146973L129.345 7.83697L120.955 13.427L117.875 6.14697L124.225 0.146973Z" fill="#FDAF01"/>
<path d="M60.7748 25.917L65.8948 33.607L57.5048 39.197L54.4248 31.917L60.7748 25.917Z" fill="#FDAF01"/>
<path d="M35.095 66.3589L40.085 73.0489L32.995 78.6589L29.835 72.2089L35.095 66.3589Z" fill="#E830FF"/>
<path d="M22.04 229.634L27.03 236.324L19.94 241.934L16.78 235.484L22.04 229.634Z" fill="#E830FF"/>
</g>
<defs>
<linearGradient id="paint0_linear_1_4038" x1="32.8039" y1="139.719" x2="32.8684" y2="139.768" gradientUnits="userSpaceOnUse">
<stop stop-color="#9A6CD1"/>
<stop offset="1" stop-color="#BE91E2"/>
</linearGradient>
<clipPath id="clip0_1_4038">
<rect width="130" height="347" fill="white"/>
</clipPath>
</defs>
</svg>
