<svg width="115" height="351" viewBox="0 0 115 351" fill="none" xmlns="http://www.w3.org/2000/svg">
<g clip-path="url(#clip0_1_4020)">
<path d="M88.5498 350.889L92.0498 341.779L98.3598 347.379L96.9598 350.889H88.5498Z" fill="#FFC700"/>
<path d="M110.07 142.762L103.05 134.312L109.82 125.162L114.42 133.432L110.07 142.762Z" fill="#FD0000"/>
<path d="M53.7601 37.2482L47.1301 36.3082L46.6401 29.3682L52.0701 31.2182L53.7601 37.2482Z" fill="#EE037F"/>
<path d="M97.9296 203.438L103.05 211.118L96.3696 217.978L93.2896 210.698L97.9296 203.438Z" fill="#00CCFF"/>
<path d="M86.24 9.64834L84.71 2.67834L92.19 0.79834L92.39 6.92834L86.24 9.64834Z" fill="#7FC31C"/>
<path d="M3.63008 14.6191L7.73008 18.3291L3.69008 22.7991L0.830078 19.0291L3.63008 14.6191Z" fill="#00A0C6"/>
<path d="M78.3301 248.518L84.0301 246.718L87.1001 252.098L82.0201 252.708L78.3301 248.518Z" fill="#FDA500"/>
<path d="M22.77 71.4685L28.46 69.6685L31.54 75.0485L26.46 75.6585L22.77 71.4685Z" fill="#FDA500"/>
<path d="M72.9099 289.667L64.8599 282.187L72.7099 273.237L78.3299 280.847L72.9099 289.667Z" fill="#E830FF"/>
<path d="M10.49 173.818L16.3 179.818L11.69 187.138L7.72998 181.138L10.49 173.818Z" fill="#00CCFF"/>
<path d="M41.2297 109.349L47.5397 115.049L41.3097 121.949L36.9097 116.139L41.2297 109.349Z" fill="#FDAF01"/>
<path d="M44.7351 160.468L51.0551 166.168L46.6251 173.818L42.2251 168.008L44.7351 160.468Z" fill="#EE037F"/>
<path d="M94.3797 87.1587L88.7397 81.9187L94.2297 75.6587L98.1697 80.9887L94.3797 87.1587Z" fill="#7FC31C"/>
<path d="M64.4199 109.349L70.7299 115.059L64.4999 121.959L60.1099 116.149L64.4199 109.349Z" fill="#00A0C6"/>
<path d="M16.9149 81.4087L22.0349 89.0987L13.6449 94.6887L10.5649 87.4087L16.9149 81.4087Z" fill="#FDAF01"/>
<path d="M44.025 256.714L43.395 249.614L51.055 248.704L50.465 254.814L44.025 256.714Z" fill="#7FC31C"/>
<path d="M73.3401 63.3589L78.3301 70.0489L71.2401 75.6589L68.0801 69.2089L73.3401 63.3589Z" fill="#E830FF"/>
</g>
<defs>
<clipPath id="clip0_1_4020">
<rect width="115" height="351" fill="white"/>
</clipPath>
</defs>
</svg>
