<?xml version="1.0" encoding="UTF-8"?>
<svg xmlns="http://www.w3.org/2000/svg" width="35" height="32" viewBox="0 0 35 32" fill="none">
  <path fill-rule="evenodd" clip-rule="evenodd" d="M34.2901 13.6269C34.2901 6.1123 26.7566 0 17.4986 0C8.2405 0 0.707031 6.11387 0.707031 13.6269C0.707031 20.3633 6.68099 26.004 14.7505 27.0714C15.2976 27.1894 16.0412 27.4315 16.2299 27.8999C16.3997 28.3244 16.3399 28.9894 16.2849 29.4186C16.2849 29.4186 16.0884 30.6039 16.0459 30.8555L16.0397 30.8911C15.9594 31.3444 15.7557 32.4955 17.5001 31.761C19.2923 31.0064 27.1701 26.0669 30.6931 22.0125C33.1267 19.343 34.2932 16.6359 34.2932 13.6285L34.2901 13.6269ZM28.7046 17.9666C28.8822 17.9666 29.0253 17.8235 29.0253 17.6459V16.4543C29.0253 16.2782 28.8806 16.1335 28.7046 16.1335H25.4991V14.8963H28.7046C28.8822 14.8963 29.0253 14.7533 29.0253 14.5756V13.3855C29.0253 13.2095 28.8806 13.0648 28.7046 13.0648H25.4991V11.8276H28.7046C28.8822 11.8276 29.0253 11.6845 29.0253 11.5069V10.3168C29.0253 10.1407 28.8806 9.99609 28.7046 9.99609H23.9867C23.8091 9.99609 23.666 10.1392 23.666 10.3168V10.3231V17.6396V17.6459C23.666 17.8235 23.8091 17.9666 23.9867 17.9666H28.7046ZM11.5751 17.6459C11.5751 17.8235 11.432 17.9666 11.2544 17.9666H6.53653C6.35888 17.9666 6.21582 17.8235 6.21582 17.6459V17.6396V10.3168C6.21582 10.1392 6.35888 9.99609 6.53653 9.99609H7.72817C7.90425 9.99609 8.04888 10.1407 8.04888 10.3168V16.1335H11.2544C11.4305 16.1335 11.5751 16.2782 11.5751 16.4543V17.6459ZM14.0936 9.99609H12.9035C12.7264 9.99609 12.5828 10.1397 12.5828 10.3168V17.6443C12.5828 17.8214 12.7264 17.965 12.9035 17.965H14.0936C14.2707 17.965 14.4143 17.8214 14.4143 17.6443V10.3168C14.4143 10.1397 14.2707 9.99609 14.0936 9.99609ZM21.0092 9.99609H22.2009V9.99924C22.3785 9.99924 22.5216 10.1423 22.5216 10.3199V17.649C22.5216 17.8267 22.3785 17.9698 22.2009 17.9698H21.0171C20.9888 17.9698 20.9605 17.965 20.9338 17.9587H20.9291C20.9212 17.9572 20.9149 17.9556 20.907 17.9525C20.9055 17.9525 20.9039 17.9517 20.9023 17.9509C20.9008 17.9501 20.8992 17.9493 20.8976 17.9493C20.8967 17.949 20.8957 17.9487 20.8947 17.9484C20.8905 17.9471 20.8857 17.9456 20.8819 17.943C20.8795 17.9415 20.8768 17.9403 20.874 17.9391C20.8713 17.9379 20.8685 17.9367 20.8662 17.9352L20.8567 17.9305C20.8489 17.9257 20.8426 17.9226 20.8363 17.9179C20.8363 17.9163 20.8332 17.9147 20.8332 17.9147C20.8017 17.8943 20.7734 17.8676 20.7498 17.8346L17.3934 13.3006V17.6522C17.3934 17.8298 17.2504 17.9729 17.0727 17.9729H15.8811C15.7034 17.9729 15.5604 17.8298 15.5604 17.6522V10.3231C15.5604 10.1454 15.7034 10.0024 15.8811 10.0024H17.0648H17.0758H17.0931C17.0963 10.0024 17.099 10.0028 17.1018 10.0032C17.1045 10.0036 17.1073 10.004 17.1104 10.004C17.1152 10.0055 17.1199 10.0055 17.1246 10.0055C17.1267 10.006 17.1288 10.0067 17.1309 10.0074C17.1351 10.0088 17.1393 10.0102 17.1435 10.0102C17.1466 10.0118 17.1513 10.0134 17.1545 10.0134C17.1575 10.0142 17.1606 10.0153 17.1636 10.0164C17.1669 10.0176 17.1701 10.0189 17.1733 10.0197C17.1759 10.0197 17.178 10.0206 17.1799 10.0215C17.1815 10.0222 17.1829 10.0228 17.1843 10.0228C17.1906 10.0244 17.1969 10.0275 17.2032 10.0307L17.2126 10.0354C17.2189 10.0385 17.2236 10.0417 17.2299 10.0448C17.2331 10.0464 17.2362 10.0495 17.2393 10.0511C17.2456 10.0543 17.2519 10.0574 17.2566 10.0621C17.2598 10.0637 17.2629 10.0668 17.2661 10.0684C17.2692 10.0708 17.272 10.0731 17.2747 10.0755C17.2775 10.0778 17.2802 10.0802 17.2834 10.0826C17.2842 10.0833 17.2853 10.0841 17.2865 10.0849C17.2877 10.0857 17.2889 10.0865 17.2897 10.0873C17.2928 10.0904 17.2959 10.094 17.2991 10.0975C17.3022 10.101 17.3054 10.1046 17.3085 10.1077L17.3101 10.1093C17.314 10.1148 17.3184 10.1203 17.3227 10.1258C17.327 10.1313 17.3313 10.1368 17.3352 10.1423L20.6885 14.6699V10.3168C20.6885 10.1392 20.8316 9.99609 21.0092 9.99609Z" fill="#4CC764"></path>
</svg>
