<?xml version="1.0" encoding="UTF-8"?>
<svg xmlns="http://www.w3.org/2000/svg" width="40" height="33" viewBox="0 0 40 33" fill="none">
  <path d="M40 9.37616V25.6602C40.0001 27.3204 39.3649 28.9178 38.2247 30.1246C37.0844 31.3314 35.5256 32.0562 33.868 32.1502L33.5 32.1602H6.5C4.83972 32.1603 3.24234 31.525 2.03554 30.3848C0.828734 29.2446 0.103997 27.6858 0.0100002 26.0282L0 25.6602V9.37616L19.304 19.4882C19.5188 19.6006 19.7576 19.6594 20 19.6594C20.2424 19.6594 20.4812 19.6006 20.696 19.4882L40 9.37616ZM6.5 0.160156H33.5C35.1112 0.159962 36.665 0.758147 37.8601 1.83869C39.0552 2.91923 39.8064 4.40512 39.968 6.00816L20 16.4682L0.0320001 6.00816C0.187047 4.46878 0.8861 3.03519 2.0035 1.96508C3.1209 0.894974 4.58336 0.25853 6.128 0.170157L6.5 0.160156H33.5H6.5Z" fill="white"></path>
</svg>
