<?xml version="1.0" encoding="UTF-8"?>
<svg xmlns="http://www.w3.org/2000/svg" width="32" height="32" viewBox="0 0 32 32" fill="none">
  <path d="M2.75717 7.3095L14.5905 19.1442C14.9406 19.4945 15.4082 19.7024 15.9028 19.7278C16.3973 19.7532 16.8838 19.5942 17.2678 19.2815L17.4198 19.1442L29.2452 7.3175C29.2838 7.46416 29.3092 7.6135 29.3225 7.76683L29.3332 8.00016V24.0002C29.3334 24.6729 29.0793 25.3209 28.6218 25.8142C28.1644 26.3075 27.5374 26.6097 26.8665 26.6602L26.6665 26.6668H5.33317C4.6604 26.667 4.01241 26.413 3.51911 25.9555C3.0258 25.498 2.72363 24.871 2.67317 24.2002L2.6665 24.0002V8.00016C2.6665 7.84016 2.67984 7.6855 2.7065 7.5335L2.75717 7.3095ZM26.6665 5.3335C26.8278 5.3335 26.9865 5.34683 27.1398 5.37483L27.3665 5.42683L16.0065 16.7868L4.6425 5.42416C4.78917 5.38416 4.94117 5.3575 5.09584 5.34416L5.33317 5.3335H26.6665Z" fill="#FF8C00"></path>
</svg>
