<?xml version="1.0" encoding="UTF-8"?>
<svg xmlns="http://www.w3.org/2000/svg" width="49" height="48" viewBox="0 0 49 48" fill="none">
  <path d="M24.5 3C12.9031 3 3.5 12.4031 3.5 24C3.5 35.5969 12.9031 45 24.5 45C36.0969 45 45.5 35.5969 45.5 24C45.5 12.4031 36.0969 3 24.5 3ZM34.5922 18.8297C34.6062 19.05 34.6062 19.2797 34.6062 19.5047C34.6062 26.3859 29.3656 34.3125 19.7891 34.3125C16.8359 34.3125 14.0984 33.4547 11.7922 31.9781C12.2141 32.025 12.6172 32.0437 13.0484 32.0437C15.4859 32.0437 17.7266 31.2188 19.5125 29.8219C17.225 29.775 15.3031 28.275 14.6469 26.2125C15.4484 26.3297 16.1703 26.3297 16.9953 26.1188C15.8175 25.8795 14.7588 25.2398 13.9991 24.3084C13.2395 23.377 12.8257 22.2113 12.8281 21.0094V20.9437C13.5172 21.3328 14.3281 21.5719 15.1766 21.6047C14.4633 21.1293 13.8784 20.4854 13.4736 19.7298C13.0689 18.9743 12.8568 18.1306 12.8563 17.2734C12.8563 16.3031 13.1094 15.4172 13.5641 14.6484C14.8714 16.2578 16.5028 17.5741 18.3522 18.5117C20.2016 19.4493 22.2275 19.9873 24.2984 20.0906C23.5625 16.5516 26.2063 13.6875 29.3844 13.6875C30.8844 13.6875 32.2344 14.3156 33.1859 15.3281C34.3625 15.1078 35.4875 14.6672 36.4906 14.0766C36.1016 15.2812 35.2859 16.2984 34.2031 16.9406C35.2531 16.8281 36.2656 16.5375 37.2031 16.1297C36.4953 17.1703 35.6094 18.0938 34.5922 18.8297Z" fill="#1DA1F2"></path>
</svg>
