<svg width="1440" height="153" viewBox="0 0 1440 153" fill="none" xmlns="http://www.w3.org/2000/svg">
<path opacity="0.5" d="M1428.55 102.104V97.7345H1420.73V102.104H1410.61V117.271C1403.51 113.579 1398 110.733 1390.76 106.969V102.484H1386.27V106.969L1381.31 109.265V85.0384H1364.58V81.0366H1359.27V85.0384H1343.65V119.263L1329.57 109.471L1321.44 115.25L1315.8 119.263V98.4031H1302.11V93.755H1292.75V98.4031H1291.56V83.1789H1291.6V55.8394H1277.66V50.045H1258.47V55.8394H1230.23V73.9831C1227.95 72.7058 1219.57 68.6316 1209.4 71.3644V9.04831L1195.64 0.796875L1195.62 0.85259H1154.52V74.9247L1140.79 69.2375L1128.4 74.9247V28.121C1128.4 26.756 1127.07 25.9189 1126.04 26.6362L1104.86 35.7512V28.681H1101.83V37.055L1091.34 41.5693V73.4454L1089.18 72.3172L1084.5 69.8657V64.0226H1079.33V69.8657C1077.89 70.7154 1076.5 71.5274 1075.16 72.3172C1068.82 76.0362 1063.36 79.2245 1056.71 83.1301V69.1108H1014.68V100.676H1007.29V96.0463H999.298V100.676H987.608V121.451C983.9 118.373 979.814 116.834 975.725 116.834C971.635 116.834 967.7 118.314 964.047 121.281L963.837 121.451L960.008 124.717V102.105H948.557V97.7359H940.732V102.105H930.619V117.272C923.513 113.58 918.003 110.734 910.764 106.971V102.486H906.279V106.971L901.321 109.266V85.0398H884.586V81.038H879.274V85.0398H863.656V119.264L849.573 109.472L841.446 115.251L835.806 119.264V98.4045H822.112V93.7564H812.752V98.4045H811.568V83.1803H811.609V55.8408H797.668V50.0464H778.476V55.8408H750.232V73.9845C747.956 72.7072 739.577 68.633 729.411 71.3658V9.04831L715.641 0.796875L715.616 0.85259H674.514V74.9247L660.783 69.2375L648.392 74.9247V28.121C648.392 26.756 647.065 25.9189 646.036 26.6362L624.855 35.7512V28.681H621.824V37.055L611.337 41.5693V73.4454L609.181 72.3172L604.497 69.8657V64.0226H599.33V69.8657C597.885 70.7154 596.5 71.5274 595.154 72.3172C588.814 76.0362 583.358 79.2245 576.706 83.1301V69.1108H534.676V100.676H527.284V96.0463H519.295V100.676H507.605V121.451C503.897 118.373 499.811 116.834 495.721 116.834C491.632 116.834 487.697 118.314 484.044 121.281L483.833 121.451L480.005 124.717V102.105H468.554V97.7359H460.729V102.105H450.616V117.272C443.51 113.58 438 110.734 430.761 106.971V102.486H426.276V106.971L421.318 109.266V85.0398H404.583V81.038H399.271V85.0398H383.653V119.264L369.57 109.472L361.443 115.251L355.803 119.264V98.4045H342.109V93.7564H332.749V98.4045H331.565V83.1803H331.605V55.8408H317.664V50.0464H298.473V55.8408H270.229V73.9845C267.953 72.7072 259.574 68.633 249.407 71.3658V9.04831L235.641 0.796875L235.616 0.85259H194.513V74.9247L180.783 69.2375L168.392 74.9247V28.121C168.392 26.756 167.065 25.9189 166.035 26.6362L144.854 35.7512V28.681H141.824V37.055L131.337 41.5693V73.4454L129.181 72.3172L124.497 69.8657V64.0226H119.329V69.8657C117.885 70.7154 116.499 71.5274 115.154 72.3172C108.814 76.0362 103.358 79.2245 96.7057 83.1301V69.1108H54.6742V100.676H47.2825V96.0463H39.2932V100.676H27.6031V121.451C23.8954 118.373 19.8089 116.834 15.7181 116.834C11.6274 116.834 7.694 118.314 4.0406 121.281L3.83029 121.451L0 124.716V151.62H0.0306423V185H1439.94V151.62H1440V102.103H1428.55V102.104ZM1430.55 106.157H1435.14V111.998H1430.55V106.157ZM1430.55 116.143H1435.14V121.983H1430.55V116.143ZM1430.55 126.128H1435.14V131.969H1430.55V126.128ZM1423.25 106.157H1427.84V111.998H1423.25V106.157ZM1423.25 116.143H1427.84V121.983H1423.25V116.143ZM1423.25 126.128H1427.84V131.969H1423.25V126.128ZM1415.94 106.157H1420.53V111.998H1415.94V106.157ZM1415.94 116.143H1420.53V121.983H1415.94V116.143ZM1415.94 126.128H1420.53V131.969H1415.94V126.128ZM1396.49 124.078H1401.78V129.918H1396.49V124.078ZM1387.9 114.533H1393.19V120.373H1387.9V114.533ZM1371.01 91.1782H1373.75V95.4878H1371.01V91.1782ZM1364.18 91.1782H1366.92V95.4878H1364.18V91.1782ZM1357.36 91.1782H1360.1V95.4878H1357.36V91.1782ZM1350.53 91.1782H1353.27V95.4878H1350.53V91.1782ZM1325.77 120.94C1325.77 119.292 1327.11 117.956 1328.76 117.956H1330.55C1332.19 117.956 1333.53 119.292 1333.53 120.94V127.502H1325.78V120.94H1325.77ZM1274.09 63.8025H1282.44V77.6728H1274.09V63.8025ZM1274.09 85.3476H1282.44V98.5215H1274.09V85.3476ZM1257.67 63.8025H1266.02V77.6728H1257.67V63.8025ZM1257.67 85.3476H1266.02V98.5215H1257.67V85.3476ZM1241.25 63.8025H1249.61V77.6728H1241.25V63.8025ZM1241.25 85.3476H1249.61V98.5215H1241.25V85.3476ZM1215.29 83.3293H1221.13V90.9108H1215.29V83.3293ZM1177.16 11.5694H1184.38V23.4841H1177.16V11.5694ZM1177.16 34.779H1184.38V46.6937H1177.16V34.779ZM1177.16 57.9886H1184.38V69.9033H1177.16V57.9886ZM1162.69 11.568H1169.91V23.4827H1162.69V11.5694V11.568ZM1162.69 34.7776H1169.91V46.6923H1162.69V34.7776ZM1162.69 57.9872H1169.91V69.9019H1162.69V57.9872ZM1137.79 77.9737H1143.64V85.5551H1137.79V77.9737ZM1109.05 40.9634H1123.27V44.9206H1109.05V40.9634ZM1109.05 50.2971H1123.27V54.2543H1109.05V50.2971ZM1109.05 59.6308H1123.27V63.588H1109.05V59.6308ZM1076.75 80.7622H1085.82V93.3441H1076.75V80.7622ZM1039.74 75.5152H1043.9V83.105H1039.74V75.5152ZM1039.74 87.5163H1043.9V95.1061H1039.74V87.5163ZM1039.74 99.5174H1043.9V107.109H1039.74V99.5174ZM1032.96 75.5152H1037.12V83.105H1032.96V75.5152ZM1032.96 87.5163H1037.12V95.1061H1032.96V87.5163ZM1032.96 99.5174H1037.12V107.109H1032.96V99.5174ZM1026.18 75.5152H1030.34V83.105H1026.18V75.5152ZM1026.18 87.5163H1030.34V95.1061H1026.18V87.5163ZM1026.18 99.5174H1030.34V107.109H1026.18V99.5174ZM998.671 112.485C998.671 110.72 1000.1 109.288 1001.87 109.288H1003.78C1005.55 109.288 1006.98 110.719 1006.98 112.485V116.87H998.671V112.485ZM950.549 106.152H955.138V111.992H950.549V106.152ZM950.549 116.137H955.138V121.978H950.549V116.137ZM950.549 126.123H955.138V131.963H950.549V126.123ZM943.244 106.152H947.833V111.992H943.244V106.152ZM943.244 116.137H947.833V121.978H943.244V116.137ZM943.244 126.123H947.833V131.963H943.244V126.123ZM935.938 106.152H940.528V111.992H935.938V106.152ZM935.938 116.137H940.528V121.978H935.938V116.137ZM935.938 126.123H940.528V131.963H935.938V126.123ZM916.49 124.072H921.776V129.913H916.49V124.072ZM907.901 114.527H913.186V120.367H907.901V114.527ZM891.003 91.1726H893.742V95.4822H891.003V91.1726ZM884.178 91.1726H886.918V95.4822H884.178V91.1726ZM877.353 91.1726H880.093V95.4822H877.353V91.1726ZM870.528 91.1726H873.268V95.4822H870.528V91.1726ZM845.771 120.934C845.771 119.287 847.106 117.951 848.754 117.951H850.544C852.192 117.951 853.527 119.287 853.527 120.934V127.496H845.772V120.934H845.771ZM794.083 63.7969H802.437V77.6672H794.083V63.7969ZM794.083 85.342H802.437V98.5159H794.083V85.342ZM777.667 63.7969H786.021V77.6672H777.667V63.7969ZM777.667 85.342H786.021V98.5159H777.667V85.342ZM761.251 63.7969H769.605V77.6672H761.251V63.7969ZM761.251 85.342H769.605V98.5159H761.251V85.342ZM735.283 83.3237H741.13V90.9052H735.283V83.3237ZM697.154 11.5639H704.372V23.4786H697.154V11.5694V11.5639ZM697.154 34.7734H704.372V46.6882H697.154V34.7734ZM697.154 57.983H704.372V69.8977H697.154V57.983ZM682.691 11.5625H689.909V23.4772H682.691V11.5694V11.5625ZM682.691 34.772H689.909V46.6868H682.691V34.772ZM682.691 57.9816H689.909V69.8964H682.691V57.9816ZM657.791 77.9681H663.638V85.5496H657.791V77.9681ZM629.042 40.9578H643.265V44.915H629.042V40.9578ZM629.042 50.2915H643.265V54.2487H629.042V50.2915ZM629.042 59.6252H643.265V63.5824H629.042V59.6252ZM596.745 80.7567H605.818V93.3386H596.745V80.7567ZM559.739 75.5097H563.893V83.0995H559.739V75.5097ZM559.739 87.5107H563.893V95.1005H559.739V87.5107ZM559.739 99.5118H563.893V107.103H559.739V99.5118ZM552.96 75.5097H557.115V83.0995H552.96V75.5097ZM552.96 87.5107H557.115V95.1005H552.96V87.5107ZM552.96 99.5118H557.115V107.103H552.96V99.5118ZM546.181 75.5097H550.336V83.0995H546.181V75.5097ZM546.181 87.5107H550.336V95.1005H546.181V87.5107ZM546.181 99.5118H550.336V107.103H546.181V99.5118ZM518.668 112.48C518.668 110.715 520.099 109.283 521.865 109.283H523.781C525.546 109.283 526.978 110.713 526.978 112.48V116.864H518.668V112.48ZM470.546 106.146H475.135V111.986H470.546V106.146ZM470.546 116.132H475.135V121.972H470.546V116.132ZM470.546 126.117H475.135V131.958H470.546V126.117ZM463.24 106.146H467.83V111.986H463.24V106.146ZM463.24 116.132H467.83V121.972H463.24V116.132ZM463.24 126.117H467.83V131.958H463.24V126.117ZM455.935 106.146H460.524V111.986H455.935V106.146ZM455.935 116.132H460.524V121.972H455.935V116.132ZM455.935 126.117H460.524V131.958H455.935V126.117ZM436.487 124.067H441.773V129.907H436.487V124.067ZM427.897 114.521H433.183V120.362H427.897V114.521ZM411 91.167H413.739V95.4766H411V91.167ZM404.175 91.167H406.914V95.4766H404.175V91.167ZM397.35 91.167H400.09V95.4766H397.35V91.167ZM390.525 91.167H393.265V95.4766H390.525V91.167ZM365.769 120.929C365.769 119.281 367.104 117.945 368.752 117.945H370.542C372.19 117.945 373.525 119.281 373.525 120.929V127.491H365.77V120.929H365.769ZM314.081 63.7914H322.435V77.6617H314.081V63.7914ZM314.081 85.3364H322.435V98.5103H314.081V85.3364ZM297.665 63.7914H306.019V77.6617H297.665V63.7914ZM297.665 85.3364H306.019V98.5103H297.665V85.3364ZM281.249 63.7914H289.603V77.6617H281.249V63.7914ZM281.249 85.3364H289.603V98.5103H281.249V85.3364ZM255.281 83.3182H261.128V90.8996H255.281V83.3182ZM217.159 11.5694H224.377V23.4841H217.159V11.5694ZM217.159 34.779H224.377V46.6937H217.159V34.779ZM217.159 57.9886H224.377V69.9033H217.159V57.9886ZM202.696 11.568H209.914V23.4827H202.696V11.5694V11.568ZM202.696 34.7776H209.914V46.6923H202.696V34.7776ZM202.696 57.9872H209.914V69.9019H202.696V57.9872ZM177.796 77.9737H183.643V85.5551H177.796V77.9737ZM149.047 40.9634H163.271V44.9206H149.047V40.9634ZM149.047 50.2971H163.271V54.2543H149.047V50.2971ZM149.047 59.6308H163.271V63.588H149.047V59.6308ZM116.75 80.7622H125.823V93.3441H116.75V80.7622ZM79.7438 75.5152H83.8986V83.105H79.7438V75.5152ZM79.7438 87.5163H83.8986V95.1061H79.7438V87.5163ZM79.7438 99.5174H83.8986V107.109H79.7438V99.5174ZM72.9649 75.5152H77.1197V83.105H72.9649V75.5152ZM72.9649 87.5163H77.1197V95.1061H72.9649V87.5163ZM72.9649 99.5174H77.1197V107.109H72.9649V99.5174ZM66.186 75.5152H70.3408V83.105H66.186V75.5152ZM66.186 87.5163H70.3408V95.1061H66.186V87.5163ZM66.186 99.5174H70.3408V107.109H66.186V99.5174ZM38.6734 112.485C38.6734 110.72 40.1038 109.288 41.8699 109.288H43.7864C45.5512 109.288 46.983 110.719 46.983 112.485V116.87H38.6734V112.485Z" fill="#FFA028"/>
</svg>
