<?xml version="1.0" encoding="UTF-8"?>
<svg xmlns="http://www.w3.org/2000/svg" width="49" height="48" viewBox="0 0 49 48" fill="none">
  <path d="M43.902 14.7315C43.6727 13.9136 43.226 13.1731 42.6095 12.5887C41.9756 11.9863 41.1986 11.5555 40.3519 11.3367C37.1832 10.5015 24.4882 10.5015 24.4882 10.5015C19.1958 10.4413 13.9047 10.7062 8.6447 11.2945C7.79801 11.5294 7.02249 11.9699 6.38713 12.5769C5.76284 13.1775 5.31065 13.9183 5.07443 14.7298C4.50699 17.7867 4.23129 20.8907 4.25104 23.9997C4.23079 27.106 4.50582 30.2089 5.07443 33.2696C5.30559 34.0778 5.75609 34.8151 6.38207 35.4107C7.00805 36.0064 7.78757 36.4366 8.6447 36.6644C11.8556 37.4979 24.4882 37.4979 24.4882 37.4979C29.7873 37.5582 35.0852 37.2934 40.3519 36.7049C41.1986 36.4862 41.9756 36.0553 42.6095 35.4529C43.2258 34.8687 43.6719 34.128 43.9003 33.3101C44.4825 30.2544 44.7656 27.1492 44.7456 24.0385C44.7894 20.9147 44.5066 17.7949 43.902 14.7298V14.7315ZM20.4522 29.7769V18.2242L31.0146 24.0014L20.4522 29.7769Z" fill="#FF0000"></path>
</svg>
