<?xml version="1.0" encoding="UTF-8"?>
<svg xmlns="http://www.w3.org/2000/svg" width="70" height="48" viewBox="0 0 70 48" fill="none">
  <path d="M28.1429 34.2857L45.9372 24L28.1429 13.7143V34.2857ZM67.7772 7.44C68.2229 9.05143 68.5315 11.2114 68.7372 13.9543C68.9772 16.6971 69.0801 19.0629 69.0801 21.12L69.2858 24C69.2858 31.5086 68.7372 37.0286 67.7772 40.56C66.9201 43.6457 64.9315 45.6343 61.8458 46.4914C60.2343 46.9371 57.2858 47.2457 52.7601 47.4514C48.3029 47.6914 44.2229 47.7943 40.4515 47.7943L35.0001 48C20.6344 48 11.6858 47.4514 8.15435 46.4914C5.06864 45.6343 3.08007 43.6457 2.22293 40.56C1.77721 38.9486 1.46864 36.7886 1.26293 34.0457C1.02293 31.3029 0.92007 28.9371 0.92007 26.88L0.714355 24C0.714355 16.4914 1.26293 10.9714 2.22293 7.44C3.08007 4.35429 5.06864 2.36571 8.15435 1.50857C9.76578 1.06286 12.7144 0.754285 17.2401 0.548571C21.6972 0.308571 25.7772 0.205714 29.5486 0.205714L35.0001 0C49.3658 0 58.3143 0.548572 61.8458 1.50857C64.9315 2.36571 66.9201 4.35429 67.7772 7.44Z" fill="white"></path>
</svg>
